<?xml version="1.0" encoding="UTF-8" standalone="no"?>
<!-- Created with Inkscape (http://www.inkscape.org/) -->

<svg
   xmlns:dc="http://purl.org/dc/elements/1.1/"
   xmlns:cc="http://creativecommons.org/ns#"
   xmlns:rdf="http://www.w3.org/1999/02/22-rdf-syntax-ns#"
   xmlns:svg="http://www.w3.org/2000/svg"
   xmlns="http://www.w3.org/2000/svg"
   xmlns:sodipodi="http://sodipodi.sourceforge.net/DTD/sodipodi-0.dtd"
   xmlns:inkscape="http://www.inkscape.org/namespaces/inkscape"
   width="300"
   height="300"
   viewBox="0 0 744.09449 1052.3622"
   id="svg2"
   version="1.1"
   inkscape:version="0.91 r13725"
   sodipodi:docname="schaufel_bagger.svg">
  <defs
     id="defs4" />
  <sodipodi:namedview
     id="base"
     pagecolor="#ffffff"
     bordercolor="#666666"
     borderopacity="1.0"
     inkscape:pageopacity="0.0"
     inkscape:pageshadow="2"
     inkscape:zoom="2.8"
     inkscape:cx="243.48346"
     inkscape:cy="148.00852"
     inkscape:document-units="px"
     inkscape:current-layer="g8263"
     showgrid="false"
     inkscape:window-width="1920"
     inkscape:window-height="1017"
     inkscape:window-x="-8"
     inkscape:window-y="-8"
     inkscape:window-maximized="1" />
  <metadata
     id="metadata7">
    <rdf:RDF>
      <cc:Work
         rdf:about="">
        <dc:format>image/svg+xml</dc:format>
        <dc:type
           rdf:resource="http://purl.org/dc/dcmitype/StillImage" />
        <dc:title></dc:title>
      </cc:Work>
    </rdf:RDF>
  </metadata>
  <g
     inkscape:label="NORMALER_ARBEITER"
     inkscape:groupmode="layer"
     id="layer1">
    <g
       id="g8263"
       transform="matrix(2.0789585,0,0,1.7358174,-189.39237,-381.63503)">
      <g
         id="g12889">
        <path
           sodipodi:nodetypes="cccccccccccccc"
           inkscape:connector-curvature="0"
           id="path12822"
           d="m 225.00946,719.75204 5.11336,0 214.76113,-2.04139 27.82216,-11.21705 4.91866,-18.5659 -12.39078,-24.86063 -11.29313,-8.92941 -17.57919,-2.77233 -212.20444,0 -25.23227,1.99113 -18.23129,12.29863 0,30.62092 15.79648,18.62019 z"
           style="fill:none;fill-rule:evenodd;stroke:#000000;stroke-width:7.75565243;stroke-linecap:butt;stroke-linejoin:miter;stroke-miterlimit:4;stroke-dasharray:none;stroke-opacity:1" />
        <ellipse
           ry="30.261681"
           rx="24.927275"
           cy="684.84113"
           cx="213.26161"
           id="path12824"
           style="fill:none;fill-opacity:1;stroke:#000000;stroke-width:4.15700102;stroke-miterlimit:4;stroke-dasharray:none;stroke-opacity:0.97749197" />
        <ellipse
           ry="30.261681"
           rx="24.927275"
           cy="685.02161"
           cx="437.28384"
           id="path12824-5"
           style="fill:none;fill-opacity:1;stroke:#000000;stroke-width:4.15700102;stroke-miterlimit:4;stroke-dasharray:none;stroke-opacity:0.97749197" />
        <path
           inkscape:connector-curvature="0"
           id="path12841"
           d="m 210.0334,712.5831 c -6.08899,-1.13733 -12.09694,-5.827 -15.53795,-12.12856 -6.98762,-12.79648 -4.39031,-29.69598 5.93164,-38.59447 3.87456,-3.34023 7.97797,-4.90182 12.91459,-4.91482 10.24218,-0.0269 19.12001,8.44681 21.87186,20.87633 0.87165,3.9371 0.87135,10.03461 -6e-4,14.03 -1.75893,8.05874 -6.17281,14.6316 -12.23399,18.21803 -3.85615,2.28169 -8.92127,3.26515 -12.94546,2.51349 l -9e-5,0 z"
           style="fill:#919191;fill-opacity:1;stroke:none;stroke-width:0.35714287;stroke-miterlimit:4;stroke-dasharray:none;stroke-opacity:0.97749197" />
        <path
           inkscape:connector-curvature="0"
           id="path12843"
           d="m 432.68898,712.42769 c -7.40463,-1.9556 -13.60462,-8.40658 -16.4979,-17.16583 -1.13059,-3.4228 -1.53582,-6.19751 -1.52575,-10.44727 0.0118,-4.76733 0.61147,-7.74912 2.51155,-12.47799 6.34864,-15.80043 23.09467,-20.1899 34.40351,-9.01784 3.44268,3.40103 6.43675,9.10102 7.68969,14.63929 0.83195,3.67747 0.74301,11.26116 -0.17352,14.79571 -3.18671,12.28912 -11.84887,20.2744 -21.88797,20.17756 -1.49146,-0.0141 -3.52529,-0.24101 -4.51961,-0.50363 z"
           style="fill:#919191;fill-opacity:1;stroke:none;stroke-width:2;stroke-miterlimit:4;stroke-dasharray:none;stroke-opacity:0.97749197" />
        <path
           sodipodi:nodetypes="ccccc"
           inkscape:connector-curvature="0"
           id="path12845"
           d="m 238.11951,678.16508 174.75843,-1.08262 0,22.01312 -175.96366,-1.44347 z"
           style="fill:none;fill-rule:evenodd;stroke:#000000;stroke-width:1.84658396px;stroke-linecap:butt;stroke-linejoin:miter;stroke-opacity:1" />
        <path
           inkscape:connector-curvature="0"
           id="path12847"
           d="m 380.41211,697.77306 c -87.17368,-0.78152 -121.09256,-1.05393 -130.97727,-1.05193 l -10.90617,0.002 0.55948,-1.94762 c 0.88812,-3.09166 1.29445,-7.01923 1.17145,-11.32318 l -0.11393,-3.98624 3.92086,-0.19784 c 3.30017,-0.16652 140.02113,-0.98659 159.84756,-0.95885 l 6.47812,0.008 0,6.22511 c 0,5.38523 0.0915,6.60299 0.67794,9.02588 0.76302,3.15227 0.8609,4.62613 0.30132,4.5373 -0.20715,-0.0329 -14.13887,-0.1831 -30.95937,-0.33397 z"
           style="fill:#202020;fill-opacity:1;stroke:#000000;stroke-width:3.69316792;stroke-miterlimit:4;stroke-dasharray:none;stroke-opacity:0.97749197" />
        <path
           inkscape:connector-curvature="0"
           id="path12849"
           d="m 268.85289,649.2954 0,-10.82614 131.37013,-1.44347 -1.20522,12.99135"
           style="fill:none;fill-rule:evenodd;stroke:#000000;stroke-width:1.84658396px;stroke-linecap:butt;stroke-linejoin:miter;stroke-opacity:1" />
        <path
           inkscape:connector-curvature="0"
           id="path12851"
           d="m 269.9267,643.3938 0,-3.96959 24.55657,-0.0816 c 13.50612,-0.0449 42.45426,-0.29541 64.32918,-0.55677 21.87494,-0.26138 39.84091,-0.44057 39.9244,-0.39823 0.0835,0.0422 -0.0229,2.0792 -0.23649,4.52636 l -0.38829,4.44936 -64.09269,0 -64.09268,0 0,-3.96956 z"
           style="fill:#000000;fill-opacity:1;stroke:#000000;stroke-width:2.76987576;stroke-miterlimit:4;stroke-dasharray:none;stroke-opacity:0.97749197" />
        <path
           inkscape:connector-curvature="0"
           id="path12853"
           d="m 268.85289,637.02579 -61.46676,-10.10439 -10.24446,-34.64362 -1.20523,-18.04354 42.78569,-159.50496 32.54122,-24.53922 57.85107,-5.0522 51.82491,0.72174 31.93861,88.77427 0.60262,62.79152 85.57137,-0.72173 6.02615,37.53058 -12.65492,55.57412 -92.80275,7.21743 z"
           style="fill:none;fill-rule:evenodd;stroke:#000000;stroke-width:1.84658396px;stroke-linecap:butt;stroke-linejoin:miter;stroke-opacity:1" />
        <path
           sodipodi:nodetypes="cccc"
           inkscape:connector-curvature="0"
           id="path12855"
           d="m 448.43224,538.14716 -1.20522,-80.11337 9.64184,-0.72173 2.41045,80.11333"
           style="fill:none;fill-rule:evenodd;stroke:#000000;stroke-width:1.84658396px;stroke-linecap:butt;stroke-linejoin:miter;stroke-opacity:1" />
        <path
           inkscape:connector-curvature="0"
           id="path12857"
           d="m 449.48297,534.69764 c -0.12993,-1.30688 -1.1343,-68.47751 -1.10635,-73.99317 l 0.008,-1.67426 3.63164,-0.26134 c 1.99742,-0.14368 3.67855,-0.20227 3.73587,-0.13014 0.18161,0.22872 2.4044,76.7808 2.23532,76.98332 -0.0889,0.1065 -2.00333,0.29933 -4.25432,0.42863 l -4.09272,0.23508 -0.15793,-1.58818 z"
           style="fill:#000000;fill-opacity:1;stroke:#000000;stroke-width:1.38493788;stroke-miterlimit:4;stroke-dasharray:none;stroke-opacity:0.97749197" />
        <path
           inkscape:connector-curvature="0"
           id="path12859"
           d="m 206.1809,586.50385 -1.20523,-19.48703 40.37523,-145.07011 28.32292,-21.65227 54.83798,-4.33045 18.68107,4.33045 1.20524,72.1742 -40.97785,86.60902 -42.18305,37.53058 z"
           style="fill:none;fill-rule:evenodd;stroke:#000000;stroke-width:1.84658396px;stroke-linecap:butt;stroke-linejoin:miter;stroke-opacity:1" />
        <path
           inkscape:connector-curvature="0"
           id="path12861"
           d="m 221.8489,509.99922 106.6629,2.16521 5.42354,-11.54786 -110.88121,-2.88697 z"
           style="fill:none;fill-rule:evenodd;stroke:#000000;stroke-width:1.84658396px;stroke-linecap:butt;stroke-linejoin:miter;stroke-opacity:1" />
        <path
           inkscape:connector-curvature="0"
           id="path12863"
           d="m 267.28908,509.83426 c -18.0634,-0.33096 -35.35092,-0.7917 -38.41673,-1.02388 -6.31484,-0.47822 -6.28137,-0.4315 -4.58349,-6.39955 l 0.99069,-3.4823 14.52665,0.46177 c 7.98966,0.25397 29.1702,0.79667 47.06787,1.20598 17.89768,0.40933 35.32466,0.93033 38.72664,1.15778 l 6.18538,0.41354 -1.95553,4.26029 -1.95554,4.26031 -13.8717,-0.1261 c -7.62944,-0.0693 -28.65085,-0.39688 -46.71424,-0.72784 z"
           style="fill:#000000;fill-opacity:1;stroke:#000000;stroke-width:2.76987576;stroke-miterlimit:4;stroke-dasharray:none;stroke-opacity:0.97749197" />
        <path
           inkscape:connector-curvature="0"
           id="path12865"
           d="m 234.66739,590.20435 -27.49946,-4.76438 -0.42508,-9.20538 -0.42508,-9.20538 7.73106,-27.80964 7.73106,-27.80963 7.23725,0.0283 c 13.62162,0.0534 98.00087,1.98016 98.22024,2.24291 0.12047,0.14429 -4.57317,10.30589 -10.43029,22.58136 l -10.64932,22.31904 -20.48892,18.24886 c -14.51184,12.92525 -20.92843,18.23272 -21.99547,18.19356 -0.82859,-0.0303 -13.88129,-2.19924 -29.00599,-4.81965 z"
           style="fill:#9ffdff;fill-opacity:1;stroke:#000000;stroke-width:2.76987576;stroke-miterlimit:4;stroke-dasharray:none;stroke-opacity:0.97749197" />
        <path
           inkscape:connector-curvature="0"
           id="path12867"
           d="m 269.59875,497.76665 c -23.42184,-0.63383 -42.77069,-1.3748 -42.99743,-1.64661 -0.22675,-0.27181 4.15245,-16.90634 9.73157,-36.96561 l 10.14384,-36.47139 13.85275,-10.58023 13.85275,-10.5802 26.83484,-2.14231 26.83485,-2.1423 9.18988,2.00324 9.18989,2.00324 0.0577,12.6804 c 0.0317,6.97421 0.24553,22.91107 0.47499,35.41524 l 0.4172,22.73487 -6.35049,13.52022 -6.35048,13.52019 -11.14837,-0.0982 c -6.13162,-0.054 -30.31171,-0.61675 -53.73356,-1.2506 z"
           style="fill:#9ffdff;fill-opacity:1;stroke:#000000;stroke-width:2.76987576;stroke-miterlimit:4;stroke-dasharray:none;stroke-opacity:0.97749197" />
        <path
           inkscape:connector-curvature="0"
           id="path12869"
           d="m 237.03516,630.60859 -28.74737,-4.77171 -5.12627,-17.69812 c -4.92334,-16.99747 -5.1419,-18.02244 -5.52092,-25.89123 l -0.39464,-8.19315 21.25858,-79.2545 21.25859,-79.2545 15.99102,-12.05682 15.99101,-12.05682 27.45077,-2.42882 c 28.29696,-2.50369 50.8224,-3.06808 72.94821,-1.82777 l 8.13531,0.45605 15.81865,43.97854 15.81865,43.97855 0.003,25.66955 c 0.002,14.11825 0.17738,28.34306 0.38977,31.61072 l 0.38616,5.94116 42.69723,-0.46129 c 23.48347,-0.2537 42.69811,-0.32896 42.69919,-0.16712 10e-4,0.16167 1.21905,7.76407 2.70658,16.89411 1.48753,9.13004 2.70692,17.52963 2.70979,18.66579 0.005,2.06382 -11.12259,51.79963 -12.058,53.8934 -0.40403,0.90434 -3.56138,1.33756 -17.26566,2.36893 -9.22417,0.6942 -28.83859,2.22232 -43.5876,3.39581 l -26.81638,2.1336 -68.99946,-0.0762 -68.99945,-0.0762 -28.74737,-4.77171 z m 49.96509,-51.66205 21.41833,-19.07241 20.58829,-43.53869 20.58828,-43.53869 -0.46663,-27.42619 c -0.25666,-15.08442 -0.53888,-31.63841 -0.62716,-36.78668 l -0.16047,-9.36049 -9.90237,-2.26572 -9.90236,-2.26572 -25.04932,2.03973 c -13.77713,1.12185 -26.15659,2.05025 -27.50993,2.06312 -2.12076,0.0202 -4.36785,1.47873 -16.27061,10.56112 -7.5955,5.79573 -14.25284,11.07347 -14.79406,11.7283 -0.54123,0.65482 -5.52139,17.59218 -11.06703,37.63856 -5.54565,20.04637 -10.48155,36.82867 -10.96867,37.29397 -0.48711,0.46533 -1.02166,2.25164 -1.18788,3.96959 -0.16622,1.71797 -4.24983,17.39157 -9.07469,34.83025 l -8.77246,31.70669 0.56023,10.3007 c 0.30813,5.66538 0.68603,10.42025 0.83978,10.56638 0.23258,0.22106 57.04798,10.28343 59.53684,10.54435 0.44197,0.0463 10.44186,-8.49834 22.22194,-18.98817 z"
           style="fill:#ffba04;fill-opacity:1;stroke:#000000;stroke-width:2.76987576;stroke-miterlimit:4;stroke-dasharray:none;stroke-opacity:0.97749197" />
        <text
           transform="matrix(0.7572199,0.34220477,-0.36420713,1.1560269,0,0)"
           sodipodi:linespacing="125%"
           id="text12871"
           y="304.66208"
           x="574.64685"
           style="font-style:normal;font-weight:normal;font-size:32.92863083px;line-height:125%;font-family:sans-serif;letter-spacing:0px;word-spacing:0px;fill:#000000;fill-opacity:1;stroke:none;stroke-width:1px;stroke-linecap:butt;stroke-linejoin:miter;stroke-opacity:1"
           xml:space="preserve"><tspan
             y="304.66208"
             x="574.64685"
             id="tspan12873"
             sodipodi:role="line">BAGGER</tspan></text>
        <path
           inkscape:connector-curvature="0"
           id="path12875"
           d="m 203.16783,546.08631 -42.78569,-147.23535 -49.41445,-38.97406 -14.46277,23.09574 43.3883,31.03491 62.67199,196.31378"
           style="fill:none;fill-rule:evenodd;stroke:#000000;stroke-width:1.84658396px;stroke-linecap:butt;stroke-linejoin:miter;stroke-opacity:1" />
        <path
           transform="matrix(1.6873228,0,0,2.0208773,16.959703,219.85897)"
           inkscape:connector-curvature="0"
           id="path12877"
           d="M 89.430341,137.36669 73.537484,95.705779 60.823197,88.125061 48.108909,80.544343 51.894625,75.458011 c 2.082144,-2.797483 3.889001,-5.093251 4.015237,-5.101706 0.217452,-0.01457 27.684626,17.992191 28.254519,18.52292 0.148364,0.138169 5.957693,16.584565 12.909614,36.547545 l 12.639855,36.29634 -1.97305,6.00534 c -1.31994,4.01747 -2.04663,6.88151 -2.19533,8.65225 l -0.22227,2.6469 -15.892859,-41.66091 z"
           style="fill:#ffdd80;fill-opacity:1;stroke:#000000;stroke-width:1.49999988;stroke-miterlimit:4;stroke-dasharray:none;stroke-opacity:0.97749197" />
        <path
           inkscape:connector-curvature="0"
           id="path12879"
           d="m 111.5703,369.25954 42.18307,35.36536 47.00399,151.56579"
           style="fill:none;fill-rule:evenodd;stroke:#000000;stroke-width:1.84658396px;stroke-linecap:butt;stroke-linejoin:miter;stroke-opacity:1" />
        <path
           sodipodi:nodetypes="ccccccccccc"
           inkscape:connector-curvature="0"
           id="path12881"
           d="M 96.50492,381.52916 41.666929,417.61625 51.91139,517.93837 96.50492,605.26915 74.81077,627.64313 25.396317,527.32102 21.17801,416.17277 l 6.628768,-25.98271 28.925533,-21.65226 19.289962,-10.26449 36.753257,3.04707"
           style="fill:none;fill-rule:evenodd;stroke:#000000;stroke-width:1.84658396px;stroke-linecap:butt;stroke-linejoin:miter;stroke-opacity:1" />
        <path
           sodipodi:nodetypes="sscccccsssssssscsssscs"
           transform="matrix(1.6873228,0,0,2.0208773,16.959703,219.85897)"
           inkscape:connector-curvature="0"
           id="path12883"
           d="M 32.732912,197.77238 C 31.770656,196.14044 25.294785,185.16236 18.342089,173.37665 L 5.7008219,151.94807 4.465361,124.58185 3.2299002,97.215632 5.1329772,90.948346 7.0360541,84.681061 15.643912,79.30122 c 6.208493,-3.880258 7.593164,-5.381201 10.787826,-8.10104 3.725539,-3.171813 14.522867,-4.520601 15.3033,-4.363691 0.510321,0.102603 5.571167,0.854688 10.776524,1.770393 5.205357,0.91571 1.436448,1.520109 1.501694,1.574603 0.207211,0.173066 -6.750321,9.260803 -7.193925,9.396506 -1.310329,0.400841 -32.490753,17.755423 -32.65103,18.173099 -0.105851,0.275843 1.169456,11.63487 2.834015,25.24227 l 3.026471,24.74072 12.964554,21.21414 c 7.130504,11.66777 13.022079,21.31841 13.09239,21.44587 0.07031,0.12747 -1.518925,1.6468 -3.531636,3.3763 -2.012707,1.7295 -4.652204,4.00509 -5.865547,5.05685 l -2.20608,1.9123 z"
           style="fill:#ffdd80;fill-opacity:1;stroke:#000000;stroke-width:1.49999988;stroke-miterlimit:4;stroke-dasharray:none;stroke-opacity:0.97749197" />
        <ellipse
           ry="13.38742"
           rx="11.243494"
           cy="369.98129"
           cx="99.517998"
           id="path12885"
           style="fill:#ffdd80;fill-opacity:1;stroke:#000000;stroke-width:6.95376205;stroke-miterlimit:4;stroke-dasharray:none;stroke-opacity:0.97749197" />
        <path
           inkscape:connector-curvature="0"
           id="path12887"
           d="M 89.273538,603.82566 44.680005,519.38186 34.435547,414.00754 80.836924,380.08567 100.72323,366.37258"
           style="fill:none;fill-rule:evenodd;stroke:#000000;stroke-width:1.84658396px;stroke-linecap:butt;stroke-linejoin:miter;stroke-opacity:1" />
      </g>
      <path
         style="fill:none;fill-rule:evenodd;stroke:#000000;stroke-width:1.84658396px;stroke-linecap:butt;stroke-linejoin:miter;stroke-opacity:1"
         d="m 73.605539,626.19966 -10.93412,23.90631 3.100121,21.56343 5.023385,20.99961 16.670766,10.03528 21.125489,3.112 16.23666,-5.27723 22.49084,-25.53791 12.46085,-22.09705 3.66527,-7.02213 -10.89666,4.85692 -20.79023,22.73487 -9.82606,-0.6786 -9.75893,-6.53883 -12.15265,-11.25038 -4.117966,-9.31926 0.650077,-16.61009 -0.650076,-23.80745 z"
         id="path12918"
         inkscape:connector-curvature="0"
         sodipodi:nodetypes="ccccccccccccccccccc" />
      <path
         style="fill:#c3c3c3;fill-opacity:1;stroke:#000000;stroke-width:1.49999988;stroke-miterlimit:4;stroke-dasharray:none;stroke-opacity:0.97749197"
         d="m 47.040144,238.97806 -5.05046,-0.64082 -4.750251,-2.44074 -4.75025,-2.44073 -1.358465,-4.64286 c -0.747155,-2.55357 -1.789892,-7.15156 -2.317192,-10.21774 l -0.958729,-5.57488 2.832189,-5.22351 c 1.557704,-2.87292 3.038575,-5.22583 3.290825,-5.22868 0.25225,-0.003 3.06475,-2.24641 6.25,-4.98567 l 5.791364,-4.98048 0.223307,4.35548 c 0.122819,2.39551 0.138838,6.54683 0.0356,9.22515 l -0.187709,4.86968 1.313177,2.34818 c 1.077086,1.92601 1.934341,2.83487 4.768191,5.0552 1.900257,1.48886 4.833264,3.49573 6.517792,4.45971 2.863769,1.63881 3.275659,1.76876 6.339045,2.00002 l 3.276268,0.24732 6.131678,-5.61646 c 5.627875,-5.15498 7.190486,-6.28093 9.912733,-7.14266 0.654699,-0.20725 -0.06978,1.08344 -3.429083,6.109 -4.148903,6.20682 -4.429903,6.53275 -10.854875,12.59048 l -6.595714,6.21872 -4.260919,1.1779 c -4.842986,1.33882 -5.258538,1.35515 -12.168521,0.47839 z"
         id="path12920"
         inkscape:connector-curvature="0"
         transform="matrix(1.6873228,0,0,2.0208773,16.959703,219.85897)" />
      <path
         style="fill:none;fill-rule:evenodd;stroke:#000000;stroke-width:1.84658396px;stroke-linecap:butt;stroke-linejoin:miter;stroke-opacity:1"
         d="m 89.876151,620.42573 -0.602613,30.31316 10.847072,13.71309 18.07846,12.99135 12.65492,0.72173 11.44969,-10.10438"
         id="path12922"
         inkscape:connector-curvature="0" />
    </g>
  </g>
</svg>
